<?xml version="1.0" encoding="UTF-8" standalone="no"?>
<!-- Created with Inkscape (http://www.inkscape.org/) -->
<svg
   xmlns:dc="http://purl.org/dc/elements/1.1/"
   xmlns:cc="http://web.resource.org/cc/"
   xmlns:rdf="http://www.w3.org/1999/02/22-rdf-syntax-ns#"
   xmlns:svg="http://www.w3.org/2000/svg"
   xmlns="http://www.w3.org/2000/svg"
   xmlns:sodipodi="http://sodipodi.sourceforge.net/DTD/sodipodi-0.dtd"
   xmlns:inkscape="http://www.inkscape.org/namespaces/inkscape"
   version="1.0"
   width="184mm"
   height="128mm"
   id="svg2209"
   sodipodi:version="0.32"
   inkscape:version="0.45.1"
   sodipodi:docname="TreeOfLifeInt2.svg"
   inkscape:output_extension="org.inkscape.output.svg.inkscape"
   sodipodi:docbase="C:\Users\Patricia\Desktop">
  <metadata
     id="metadata38">
    <rdf:RDF>
      <cc:Work
         rdf:about="">
        <dc:format>image/svg+xml</dc:format>
        <dc:type
           rdf:resource="http://purl.org/dc/dcmitype/StillImage" />
      </cc:Work>
    </rdf:RDF>
  </metadata>
  <sodipodi:namedview
     inkscape:window-height="480"
     inkscape:window-width="640"
     inkscape:pageshadow="2"
     inkscape:pageopacity="0.0"
     guidetolerance="10.0"
     gridtolerance="10.0"
     objecttolerance="10.0"
     borderopacity="1.0"
     bordercolor="#666666"
     pagecolor="#ffffff"
     id="base"
     inkscape:zoom="0.83123264"
     inkscape:cx="325.98425"
     inkscape:cy="225.37083"
     inkscape:current-layer="svg2209" />
  <defs
     id="defs2212" />
  <g
     transform="translate(-61.745566,-266.66718)"
     id="g2189">
    <path
       d="M 268.87699,543.60053 L 281.66966,538.74257 C 278.34536,529.84721 276.49054,521.31291 275.28194,511.50092 C 264.85016,512.64748 264.85016,512.64748 264.85016,512.64748 M 211.02183,477.8266 L 242.60772,481.2062 C 242.5474,482.56646 242.64605,484.77538 242.3015,485.92977 L 211.02183,483.73004 M 222.34053,497.06407 L 253.8802,496.83217 C 253.79294,491.84689 254.3075,485.19923 254.96244,479.74818 L 249.70583,479.05244 M 258.05457,501.39305 L 263.77112,501.08216 C 264.20107,508.67112 265.03,516.42714 266.50232,523.50301 L 210.1454,535.0972 M 257.90546,542.95009 L 267.33094,539.73539 L 267.31451,539.68878 C 268.15435,542.14164 269.31155,545.25072 270.0563,547.35609 L 203.80651,573.59362 M 212.11506,563.5359 L 258.68672,546.91878 L 258.63811,546.84241 C 257.68425,544.25969 257.06299,541.72217 256.19961,539.29086 L 248.31438,541.35876 M 219.0938,544.992 L 247.23213,537.8801 C 247.96932,540.16464 248.65603,542.58545 249.28491,544.95098 L 213.20829,556.32058 M 204.71542,552.41309 L 219.51855,547.80846 C 218.97222,546.24384 218.49046,544.48028 218.0231,542.84424 L 201.77791,546.53805 M 201.46869,539.88998 L 210.43585,537.41629 C 210.08567,536.39444 209.61632,533.87325 209.199,532.31429 L 200.07724,533.86034 M 249.70583,515.30761 L 258.98221,514.07076 C 258.10643,508.1054 257.82819,501.69878 257.74535,495.51801 C 257.74535,493.17981 257.80338,490.70051 258.21824,488.47567 L 254.49862,488.17422 M 220.42362,524.17959 L 250.24323,519.56684 C 249.94176,516.76881 249.54959,514.1265 249.39662,511.59705 L 238.49688,512.37009 M 185.54426,522.41949 L 238.8834,516.23523 C 238.52928,514.03814 238.246,511.25146 237.95576,508.81414 L 211.5181,510.51481 M 208.9671,513.29771 L 211.82731,512.8339 C 211.70716,512.03474 211.19293,509.226 210.89967,507.7319 L 208.11676,507.96383 M 218.93919,501.23843 L 222.3749,501.23596 C 222.37173,499.90088 222.35284,498.56366 222.35284,497.06746 C 222.35284,495.72316 222.36809,494.38243 222.36947,493.19946 L 220.33065,493.04431 M 218.01156,495.82722 L 220.33065,495.82722 C 220.04773,494.42319 220.17456,492.02367 220.33065,490.26139 L 217.85695,490.26139 M 242.81609,483.42083 L 249.04501,483.91336 C 249.28462,480.85464 249.64943,477.64183 250.02784,474.50422 L 229.63328,471.42181 M 217.23853,472.48168 L 229.1432,474.10504 C 228.87533,476.11684 229.86455,468.967 229.89866,468.77126 L 204.87003,464.59676 M 277.69415,525.28761 C 314.799,516.31721 314.799,516.31721 314.81812,516.51637 C 313.24991,510.24786 312.40806,503.48833 312.40806,496.53341"
       style="fill:none;fill-opacity:1;stroke:#00ff00;stroke-width:2;stroke-linecap:round;stroke-linejoin:round;stroke-miterlimit:4;stroke-dasharray:none;stroke-opacity:1"
       id="path6463" />
    <path
       d="M 401.5042,490.52434 L 461.57068,390.46683"
       style="fill:none;fill-opacity:1;stroke:#000000;stroke-width:2;stroke-linecap:round;stroke-linejoin:round;stroke-miterlimit:4;stroke-dasharray:none;stroke-opacity:1"
       id="path6211" />
    <path
       d="M 281.7093,355.21288 L 282.43904,356.08038 C 278.60358,359.11476 274.93564,362.29878 271.4768,365.55779 L 268.87699,363.1751 M 274.00519,365.97031 L 274.86651,366.97298 C 271.31843,370.52621 267.49213,374.60691 263.77499,378.32651 L 261.14669,375.85281 M 229.8254,414.85649 L 258.03076,429.28714 C 260.59835,424.37 264.71051,417.38475 268.248,411.869 L 265.32104,409.55696 M 238.3526,428.52188 L 250.59679,434.09736 C 250.00033,436.36356 248.91648,438.71669 247.89378,440.91044 L 215.39475,429.0685 M 230.91863,422.07182 L 239.22719,425.7888 C 238.54124,427.50458 237.7877,429.21068 237.07509,430.92244 L 230.34,428.22044 M 277.53494,354.98097 L 279.31292,356.91355 C 280.26496,356.08093 282.43788,354.38355 283.70613,353.28423 L 281.24549,350.652 M 264.39342,367.19486 L 268.18128,370.98271 C 271.36583,368.30888 275.74583,363.94722 279.49351,360.8393 M 258.05457,369.51395 L 262.30623,373.68832 C 261.90754,374.99543 260.12745,376.74198 258.93383,377.93168 L 255.3622,375.25314 M 226.05108,399.35295 L 232.00342,402.44507 C 232.78336,401.25669 234.13073,399.14191 234.92733,397.72124 L 228.9886,393.63252 M 241.04788,386.52063 L 243.36698,388.68512 C 242.50825,389.90681 241.32315,391.90546 240.21208,393.30271 L 237.95576,391.77724 M 256.79119,387.46703 L 262.77007,392.24106 C 266.47172,388.47692 271.13847,382.97178 275.14788,378.7311 L 269.36286,372.90295 M 269.19497,385.42982 L 271.61335,387.6538 C 267.24081,392.55281 263.14001,397.67557 259.24818,402.96139 L 242.28473,390.77231 M 265.46473,395.17833 L 271.89604,400.50315 C 267.67408,406.35138 262.79367,412.91969 259.31611,419.66671 L 247.56227,412.97924 M 233.85869,399.97138 L 249.08741,409.55696 C 248.10275,411.92967 246.58864,414.4443 245.32644,416.81221 C 245.32644,416.81221 246.57744,414.44171 245.27434,416.77918 L 224.65963,405.6918 M 263.31118,420.14748 L 265.0409,421.47375 C 261.59272,427.53015 258.45145,434.01986 255.76084,440.49132 L 249.37548,437.673 M 260.14174,430.66071 L 262.22893,431.82025 C 258.9902,438.89032 255.98334,446.85179 253.51138,454.51792 L 250.54602,453.63417 M 257.59074,442.9519 L 262.49286,444.86022 L 262.49443,444.82036 L 256.50024,463.83324 L 217.58121,454.6501 M 216.48799,435.62788 L 240.10177,444.04576 C 239.7546,445.38881 239.1305,447.22376 238.55183,448.77649 L 217.58122,442.49648 M 216.70663,460.55355 L 264.30745,470.10993 C 265.40977,466.1118 266.4989,461.30083 267.81732,457.08249 L 259.75523,454.16085 M 239.61371,446.41885 L 251.312,450.40554 C 250.68639,452.98256 250.05897,455.01973 249.22377,457.28681 L 219.98632,449.40259 M 279.45809,360.85088 L 278.39137,359.3844 M 254.74427,389.37309 C 255.83764,387.94037 256.95221,386.52468 258.08749,385.12649 M 254.65323,389.30354 L 246.92292,383.58311 M 258.05457,385.12918 L 249.24201,377.86269 M 275.37046,361.62904 L 272.74216,358.53691 M 312.40806,496.53341 C 312.40806,489.36009 313.0717,482.78119 314.75704,476.12944 L 266.1714,463.51452"
       style="fill:none;fill-opacity:1;stroke:#ff0000;stroke-width:2;stroke-linecap:round;stroke-linejoin:round;stroke-miterlimit:4;stroke-dasharray:none;stroke-opacity:1"
       id="path6461" />
    <path
       d="M 346.53814,377.99689 C 348.75458,382.59822 346.6953,378.40962 348.23683,381.36959 C 362.58545,375.27589 379.71657,371.5488 397.0062,371.5488 C 462.41954,371.5488 516.61197,421.76861 522.18072,485.54318 L 524.25767,485.44752 M 531.99444,610.32618 L 504.07836,587.07428 C 490.47538,603.52973 472.89445,616.89298 452.26603,625.34498 M 330.83995,270.9873 L 333.619,280.02787 L 340.67902,277.98397 L 337.83662,268.80083 M 408.3318,352.04345 L 407.71338,359.46455 C 404.32838,359.47573 399.7422,359.34504 396.67232,359.35521 C 374.08665,359.88029 354.77372,364.05972 334.93912,374.25369 L 331.0287,367.81328 M 365.82334,337.01845 L 368.88439,351.66774 L 368.89365,351.71715 C 377.82354,350.08385 387.02651,349.20352 396.50777,348.92282 L 396.58174,346.78684 M 435.85172,348.64211 L 433.73619,356.05999 C 421.79086,353.24308 409.36191,351.64931 396.89095,351.64931 C 392.19847,351.64931 387.55839,351.87496 382.94811,352.24916 L 382.6591,349.91857 M 403.21185,329.58448 L 402.65845,340.87748 C 400.91612,340.93795 399.06291,340.88854 397.36449,340.80363 L 397.52704,332.86417 M 475.80237,344.23377 L 475.2348,345.34285 C 470.93847,342.95019 466.34489,340.73879 461.71963,338.86198 L 462.77416,335.69331 M 482.05256,345.49487 L 481.05017,347.2056 C 477.16153,344.91969 473.93569,342.93391 469.59148,340.92714 L 470.27217,339.81007 M 468.25909,342.04731 L 467.27518,343.79648 C 463.25785,341.4445 457.9334,339.42233 453.31934,337.70672 L 454.48439,334.83199 M 460.27849,340.84476 L 458.52932,344.23377 C 453.84355,342.17703 448.96955,340.55634 444.08596,339.02829 C 444.08596,339.02829 448.92049,340.48993 444.31097,339.1166 L 446.94107,330.24042 M 451.64197,341.82866 L 449.01356,348.81931 C 445.38212,347.66802 441.57926,346.44324 437.73693,345.34543 L 439.28846,339.20491 M 443.11479,347.1855 L 441.91222,350.35587 C 438.71815,348.93461 433.37197,347.9854 429.44208,347.00519 L 430.74801,341.19925 M 437.10201,323.89968 L 433.16637,341.82866 C 431.50276,341.13865 429.57427,340.80505 427.79332,340.36577 L 430.76126,328.2726 M 408.02206,335.26928 L 407.80341,341.17273 C 410.33793,341.348 412.99849,341.81133 415.76676,342.36297 L 417.26924,334.70391 M 412.06111,341.83944 L 411.73314,343.69471 C 407.65798,343.24007 403.77771,343.02937 399.68224,342.8501 L 399.71349,341.17273 M 405.93542,343.3082 L 405.85809,346.78684 C 399.54426,346.60144 393.15617,346.72947 386.82066,346.90029 L 386.02936,334.99986 M 369.75896,334.29314 L 369.97762,336.14386 L 370.00314,336.19166 C 367.07027,336.71856 364.13899,337.27885 361.23716,337.91797 L 360.60234,334.38143 M 336.96203,279.27082 L 344.61466,306.18935 C 341.51738,306.86045 338.46606,307.76302 335.43673,308.69865 L 328.43484,288.04171 M 323.18732,293.7265 L 333.901,322.36915 C 336.67418,321.11651 340.23834,319.97941 343.38545,319.00669 L 340.13241,307.71986 M 338.60188,320.94795 L 340.46036,326.30479 C 337.0029,327.42416 333.8612,328.82753 330.45202,330.0863 L 319.47033,302.47236 M 319.14236,326.08614 L 329.2001,348.49737 C 333.09778,346.92076 337.1088,345.49513 341.05439,343.69547 L 335.65017,328.38192 M 335.43151,346.52956 L 337.83662,352.32368 C 333.64449,353.63039 329.37093,355.81364 325.30107,357.76843 L 310.28721,328.92854 M 331.64712,355.13557 L 335.9761,365.03037 C 333.50167,366.10791 329.27568,368.21131 326.3629,369.78492 L 305.91428,333.52011 M 313.40359,369.05013 L 320.42491,380.30986 C 318.97857,381.55956 316.24566,383.21273 314.40672,384.70954 L 305.03969,372.65778 M 304.16511,363.03735 L 310.28721,371.12725 C 312.01432,370.15473 314.25928,368.67004 316.19872,367.56825 L 314.79506,365.18498 M 307.44479,358.00848 L 312.91095,365.87975 C 313.92038,365.50718 315.58227,364.34019 316.70549,363.56318 L 311.59907,354.72879 M 317.65321,382.57664 C 317.65321,382.57664 317.76253,382.90461 323.27617,390.86886 C 337.78288,380.88584 353.99805,373.47162 371.95914,370.11928 C 369.92443,361.98549 370.2524,362.64143 370.2524,362.64143 M 413.24226,334.24007 C 416.57787,334.41619 419.88501,334.91369 423.16047,335.40145 M 381.60469,335.27229 C 385.13169,334.95264 388.69158,334.74757 392.28063,334.66084 M 452.05245,333.68696 C 453.74129,334.27775 455.41592,334.89553 457.07585,335.53972 M 468.1666,338.65132 C 469.77615,339.43271 471.36848,340.23927 472.94315,341.07038 M 366.25571,334.77873 C 369.57872,334.15327 372.93546,333.60494 376.32324,333.13607 M 305.91428,305.31475 L 315.95769,327.19392 C 317.8917,326.24696 319.87021,325.36166 321.88977,324.54106 L 311.38044,301.37913 M 495.04325,656.67919 L 493.07543,653.39948 L 493.07119,653.36952 C 490.66683,655.06737 488.98042,655.84991 485.64571,657.80238 L 487.82791,661.92669 M 324.72102,679.66554 L 325.60827,677.13052 C 323.85213,676.4786 321.7878,675.57516 320.08693,674.44715 L 318.38345,677.38402 M 309.51084,660.90635 L 311.28537,657.8643 C 325.3076,666.27654 341.71691,671.47171 357.81603,675.56386 L 357.00778,679.73526 M 235.10777,604.8822 L 236.62879,603.99495 C 245.29093,617.57098 255.93551,629.67397 268.09098,640.75913 L 266.95021,642.25229 M 255.89501,628.58472 L 257.79626,626.68346 C 265.5483,635.14573 275.12653,643.36566 284.79432,650.38598 L 284.03381,651.27323 M 278.20326,650.38598 L 280.191,648.0969 C 282.89154,650.38865 286.12121,652.86721 288.72362,654.69552 L 286.31533,658.37131 M 270.98469,639.20401 L 272.37268,637.71082 C 282.45955,647.46834 295.16197,655.61931 307.67495,662.76422 L 301.77901,674.21524 M 289.35738,651.39998 L 290.75165,649.4987 C 302.42216,657.66964 316.12443,664.7572 329.79735,670.26435 L 327.1293,676.24327 M 275.54147,686.25662 L 280.48478,678.77828 C 281.88563,679.88248 284.30702,681.42243 286.17864,682.55001 L 282.13254,689.55217 M 283.37847,680.4971 L 288.23229,673.10699 C 290.76541,674.63333 294.18195,676.68294 296.45546,677.89103 L 284.92107,699.18526 M 288.21661,708.94512 L 302.03252,682.83433 C 303.4486,683.64085 305.57536,684.82623 307.45499,685.75589 L 295.69495,711.48015 M 304.6943,684.2286 L 308.11657,677.25727 C 304.18201,675.63071 299.50953,672.87146 295.63791,670.59173 L 292.52616,675.60951 M 329.91783,682.58084 L 331.7975,678.04563 C 329.20866,677.24316 326.00128,675.78078 323.4535,674.34199 L 322.69299,675.86301 M 349.05729,683.9751 L 349.5643,682.32732 C 346.76568,681.45177 343.65493,680.54366 340.75893,679.55634 L 340.48764,680.29304 M 345.50825,681.0598 L 346.01526,679.53879 C 348.52494,680.74676 352.69304,681.66133 355.92693,682.40704 L 355.39486,684.98911 M 350.95857,681.18657 L 351.59233,678.90503 C 354.70269,679.88305 358.60115,680.70115 362.11269,681.18657 L 361.47893,686.76364 M 334.15007,668.27951 L 335.31879,665.53132 C 346.1025,669.41528 357.80896,672.89146 369.21703,674.4193 L 367.8165,683.59484 M 352.35283,670.79295 L 355.1908,660.44877 C 363.65201,662.91331 373.95491,664.50894 383.31504,665.42502 L 382.2218,677.6692 M 386.15744,680.73026 L 386.37609,678.1065 C 384.55137,678.17892 380.33106,678.23869 378.06752,677.23193 L 377.41157,679.41838 M 368.90781,663.30836 L 369.46426,659.63883 C 377.69861,661.37815 387.62075,661.86467 396.65246,662.01533 C 397.76076,662.01128 399.8414,662.16267 400.44674,661.78534 L 401.24402,682.74885 M 392.02602,692.97444 L 392.11307,692.12995 C 393.9106,692.10221 395.86706,692.0019 397.77268,691.85295 L 397.88445,692.84769 M 395.32156,691.3964 L 395.19481,683.08783 C 398.41804,683.30428 403.02842,682.9483 406.77986,682.6336 L 407.36294,686.94266 M 404.54693,688.1579 L 404.54693,687.39737 C 405.62464,687.49097 408.738,687.31848 410.38631,687.23503 L 410.40499,688.1579 M 448.64498,677.64269 L 445.62921,667.72079 C 448.2363,667.00253 451.09251,666.02567 453.79381,664.98812 L 456.5615,673.07763 M 449.78349,666.29962 L 447.81567,660.39615 C 442.97106,662.0305 436.93014,663.54338 431.4172,664.3318 L 433.05705,671.54712 M 430.16937,684.43398 L 427.65935,672.72767 C 432.13954,672.07992 434.57664,671.41171 437.7988,670.36659 L 440.16304,680.29296 M 422.65809,654.86596 C 421.85638,650.16021 420.97738,645.19263 420.17567,640.28072 C 445.15146,636.68344 464.44461,626.91887 485.16129,612.516 M 399.49486,659.74023 C 399.60099,655.87941 399.52499,658.57779 399.46717,656.78589 C 415.29952,656.86602 430.3948,654.27738 444.7823,649.70437 L 447.37836,656.89782 M 462.24631,671.76577 L 455.46828,654.05543 C 450.56683,655.97303 444.80899,657.86925 439.28846,658.86564 L 440.05372,662.03601 M 479.51935,666.29962 L 476.02102,659.30293 C 474.58459,660.23685 470.68269,661.81378 468.36409,662.76475 M 472.52269,660.83346 L 471.81598,659.1108 C 476.04563,657.69254 482.04363,654.23789 486.87945,651.52598 L 489.03047,655.36729 M 479.13283,655.75383 L 475.71181,648.5385 C 481.39788,645.89268 487.69235,641.89197 493.29129,638.52103 L 500.27748,648.28006 M 501.38398,655.14865 L 497.95082,650.5808 C 499.19092,649.64543 501.22296,647.81459 502.41317,646.6855 C 502.46624,647.02577 504.24849,648.71734 505.0502,649.81057 M 484.54822,643.5604 L 482.49145,639.6563 C 487.26693,636.53745 492.07608,633.14397 496.83382,629.56427 L 509.4739,646.62145 M 489.24912,634.37728 L 484.0657,626.84542 C 489.19869,622.80454 494.46643,619.43752 499.41616,614.48048 L 506.41285,622.35172 M 525.21642,656.46053 L 522.64343,652.9622 C 523.91404,651.79931 525.79328,650.26249 526.96559,648.80792 L 528.93339,650.55709 M 524.77912,650.77572 L 503.57043,624.97548 C 505.40985,623.89905 507.80037,621.4665 509.4739,619.50932 L 540.30301,653.18083 M 543.14541,641.37395 L 531.11987,629.78569 L 531.04174,629.82229 C 533.2566,627.59057 535.47518,625.28184 537.32011,623.08038 L 545.55051,630.87892 M 533.79439,626.63409 L 530.90121,623.44497 C 532.77921,621.67396 535.53023,618.28329 537.58119,615.78856 L 545.55051,622.57037 M 534.23168,619.49607 L 528.27745,614.04317 C 530.61732,611.77704 534.33675,607.58723 535.15343,606.56948 L 549.2675,617.97881 M 416.7679,687.72693 L 413.91054,659.13671 C 398.42167,660.11473 401.49854,660.35438 385.51644,659.25051 L 385.17353,661.27075 M 434.59978,684.03194 C 432.75465,684.29945 427.81868,685.47008 422.76845,685.95579 M 451.44344,677.03399 C 449.59085,677.9011 447.53899,678.29384 445.71837,679.17902 M 474.25917,668.53959 C 472.35706,669.64533 470.17305,670.7646 468.53567,671.19764 M 490.22182,660.66686 C 488.60177,661.95056 487.4634,662.53199 485.21536,663.84244 M 545.174,639.05822 C 543.71961,640.93046 542.69766,641.77843 540.6795,643.68968 M 380.25399,682.47943 L 380.47263,680.29296 L 375.22512,679.41838 L 374.35055,682.47943 M 468.36841,662.80126 L 471.12024,669.7847 M 452.62588,625.19413 L 454.81234,630.66029 M 485.20416,612.51265 L 491.87286,620.38392 M 343.81719,681.65852 C 341.65924,681.01762 339.5234,680.29891 337.41138,679.50476 M 282.42096,653.87514 C 278.86228,651.12094 275.35562,648.25174 271.90365,645.27122 M 240.30458,609.31852 L 238.65681,610.33252 M 243.60011,614.00833 L 242.0791,615.40259 M 247.17075,618.93002 L 245.75489,620.21913 M 250.82494,623.13443 L 249.50798,624.30302 M 254.67693,627.49967 L 253.74022,628.33122 M 259.95105,633.02103 L 258.30327,634.66879 M 263.88034,636.95031 L 262.10583,638.97834 M 554.515,387.30707 L 528.27745,405.67335 C 528.90463,407.08274 530.01716,408.58594 530.97852,409.92616 L 559.10657,391.89864 M 486.29739,394.95969 L 483.89228,397.80209 C 498.55484,410.52953 509.30024,426.36568 517.89017,444.16142 L 520.3911,443.20312 M 503.3518,345.54565 L 477.55155,382.49686 C 478.52594,383.22086 481.74844,385.70029 483.455,387.08843 L 488.04656,381.18498 M 514.94005,350.13722 L 508.5993,357.78984 C 509.72229,358.59557 511.64598,360.24111 513.10691,361.30244 L 520.18755,352.54233 M 510.83654,359.70688 L 491.04408,382.93414 C 489.23559,381.47841 487.24275,380.05685 485.70498,378.8892 L 505.10097,352.97962 M 530.02664,530.30168 L 526.5283,529.20843 C 528.02065,522.56711 529.58171,515.45301 530.29218,508.42864 L 530.24527,508.43706 L 532.97835,508.87436 M 514.61624,554.68238 L 512.05961,553.29439 C 521.30521,535.37846 524.23467,517.43867 525.18686,496.97881 C 524.70976,489.55744 524.31832,482.64544 523.26228,476.06571 C 522.21342,469.53087 520.50478,463.32378 518.62552,457.27094 C 514.85412,445.12367 509.15027,433.59764 500.46953,421.29046 L 503.12503,419.13568 M 496.53397,588.5764 L 493.3519,585.89892 C 511.51497,565.36497 521.67322,545.74329 526.51503,518.62287 L 528.62418,518.93208 M 581.18155,538.65315 L 555.98075,532.7781 C 556.24701,531.29872 556.79824,529.24411 557.12586,527.7855 L 580.09929,532.31429 M 481.04989,609.0143 L 478.20749,605.73462 C 492.06495,595.28903 502.47739,583.78422 512.09764,569.43935 L 514.99082,571.34311 M 553.64041,591.30397 L 532.21309,578.62249 C 533.10909,577.08737 534.00348,575.54373 534.87096,573.98905 L 552.98449,584.08865 M 547.73697,608.79567 L 515.59597,584.52593 C 516.46455,583.46335 518.07262,581.47302 518.33327,581.0571 L 534.39955,592.17854 M 516.8946,582.68621 L 513.42277,580.01168 C 514.52342,579.24657 516.47018,576.0033 517.26147,574.76281 L 545.55051,593.27179 M 515.14543,577.51599 L 512.61631,575.38385 C 514.32607,572.72099 516.11314,569.96891 517.81038,567.10252 L 533.2798,576.20413 M 572.26654,587.64403 L 567.24592,584.88334 C 567.7439,583.54728 569.03511,581.1542 569.90762,579.5484 L 574.16781,581.55995 M 568.28154,582.1164 L 564.54579,580.39459 C 565.86464,577.65534 567.2354,574.90334 568.40019,572.21153 L 576.32258,576.10964 M 566.22566,576.05394 L 563.34192,574.7125 C 564.62732,571.6059 566.00687,568.45446 567.29873,565.2583 L 580.09929,570.65663 M 571.59596,554.73219 L 562.09936,551.30941 C 561.51174,552.96404 560.80562,554.936 560.22878,556.66347 L 572.98741,561.22564 M 561.00544,553.80455 L 557.39968,552.7862 C 558.32781,550.43912 559.48202,547.40137 559.84589,544.992 L 571.28674,548.23872 M 558.60904,548.70255 L 554.78836,547.54832 C 552.92125,552.79456 550.91098,558.15436 548.95863,563.04055 L 565.02518,569.88361 M 552.01934,555.22735 L 545.83608,553.02494 C 547.54388,548.11448 549.22844,541.80351 550.86207,537.13048 L 570.69482,542.15935 M 548.17425,544.73233 L 528.05882,538.61023 C 529.78678,533.13313 531.09251,527.53631 532.21899,521.9062 L 535.4954,522.57409 M 556.44454,530.1498 L 535.2635,525.66623 C 535.5857,523.87761 536.03893,521.35546 536.36627,519.27822 L 582.88221,526.90306 M 574.63046,519.80666 L 539.3191,515.10578 C 539.16454,514.29765 539.57865,511.74844 539.67443,510.51972 L 569.1643,513.24727 M 539.42842,512.59133 L 532.95111,512.0252 C 533.32579,509.94474 533.36522,507.77017 533.52497,505.59466 L 573.31858,507.99977 M 584.73747,484.69558 L 580.23715,484.94722 C 580.55882,488.44965 580.78108,491.98071 580.89335,495.38989 L 583.03414,495.39684 M 580.4085,479.05244 L 578.67171,479.36734 C 578.99338,482.86978 579.21564,486.40083 579.28675,489.87481 L 580.52697,489.79193 M 585.26622,469.38496 L 582.68174,469.82092 C 582.14709,467.72821 581.81453,463.72514 581.33198,461.03331 L 583.67416,460.3856 M 581.76662,465.41246 L 578.82977,465.87003 C 578.09436,463.47597 577.51775,459.12351 577.05524,456.1471 L 582.53341,454.93529 M 578.8019,484.46836 L 569.09774,485.35564 C 568.59817,478.23024 567.43059,470.45323 566.07353,463.13989 M 567.76186,474.53364 L 559.53352,475.55562 C 558.4779,467.79709 556.95532,460.31062 554.82611,452.9699 L 568.727,449.18394 M 557.34415,463.7692 L 551.77153,465.01759 C 550.16426,457.20055 548.09377,449.1222 545.33186,441.31268 L 556.92011,436.93976 M 572.01304,451.006 L 569.22451,451.513 C 569.0262,450.41708 568.44457,447.68479 567.98484,446.0411 L 570.11176,445.30218 M 595.58879,427.68374 L 558.45063,440.61238 C 557.75089,439.10998 556.41388,435.43275 555.55461,433.13004 L 579.01705,423.31691 M 582.10919,415.12278 L 561.08273,424.24455 L 561.11812,424.25063 C 560.3898,422.48922 559.6854,420.89551 559.01813,419.15474 L 571.59596,412.95829 M 574.37886,404.60956 L 541.6449,421.40263 C 542.85489,423.84521 544.11256,426.38598 545.23098,428.69133 L 559.9232,421.92546 M 543.25472,425.46083 L 527.57845,432.91385 C 525.98904,430.10814 524.33041,427.02034 522.46938,423.80252 L 558.0774,403.07612 M 525.21642,428.6312 L 519.04244,431.44833 C 517.07544,427.54603 514.74297,423.57015 512.22461,419.72686 L 529.80799,408.07846 M 549.57804,366.58955 L 542.86021,371.78636 C 540.45114,369.41651 537.63179,366.21293 535.11418,363.50439 L 538.82577,359.81602 M 548.83019,453.11958 L 526.68859,459.69564 C 523.4767,448.53391 518.64189,437.09029 512.82538,427.3178 L 515.72407,425.64746 M 477.60927,343.15861 C 482.73739,345.59273 487.73162,348.28269 492.5804,351.21239 M 557.09917,400.35763 C 558.16963,402.06013 559.21656,403.78208 560.23937,405.52292 M 585.21755,466.91312 C 585.51906,468.7955 585.79294,470.68707 586.0388,472.58739 M 583.14859,491.03568 C 583.21181,493.03857 583.39825,495.04932 583.39825,497.06746 C 583.39825,498.87744 583.21805,500.68147 583.16714,502.47922 M 546.09744,362.15961 C 550.45241,366.90227 554.42728,371.85527 558.31417,377.00154 M 594.14761,424.49442 C 594.95352,426.59948 595.7264,428.72104 596.46565,430.85847 M 566.05571,463.17414 L 577.76005,461.01936 M 531.22068,365.20155 L 493.58566,402.15925 C 488.78821,397.33224 483.22523,392.39451 477.92356,388.15908 L 480.61258,385.12061 M 529.15655,352.12075 L 527.84228,353.52214 C 529.47429,354.87608 531.07665,356.26395 532.64826,357.68461 L 534.18126,356.06321 M 530.31182,355.56218 L 526.12902,359.61823 C 529.4247,362.68607 533.07442,366.69845 536.34582,370.27382 L 539.05135,367.73598"
       style="fill:none;fill-opacity:1;stroke:#0000ff;stroke-width:2;stroke-linecap:round;stroke-linejoin:round;stroke-miterlimit:4;stroke-dasharray:none;stroke-opacity:1"
       id="path6499" />
    <path
       d="M 397.32069,489.42421 C 398.7871,489.42421 400.15406,489.84038 401.30315,490.55766"
       style="fill:none;fill-opacity:1;stroke:#000000;stroke-width:2;stroke-linecap:round;stroke-linejoin:round;stroke-miterlimit:4;stroke-dasharray:none;stroke-opacity:1"
       id="path6125" />
    <path
       d="M 389.94063,496.52216 C 389.94063,492.56483 393.2469,489.42421 397.32069,489.42421"
       style="fill:none;fill-opacity:1;stroke:#000000;stroke-width:2;stroke-linecap:round;stroke-linejoin:round;stroke-miterlimit:4;stroke-dasharray:none;stroke-opacity:1"
       id="path6123" />
    <path
       d="M 397.04555,496.36834 L 394.18534,491.49825"
       style="fill:none;fill-opacity:1;stroke:#000000;stroke-width:2;stroke-linecap:round;stroke-linejoin:round;stroke-miterlimit:4;stroke-dasharray:none;stroke-opacity:1"
       id="path5362" />
    <text
       x="365.08582"
       y="312.65833"
       style="font-size:18px;font-style:normal;font-variant:normal;font-weight:bold;font-stretch:normal;text-align:start;line-height:125%;writing-mode:lr-tb;text-anchor:start;fill:#000000;fill-opacity:1;stroke:none;stroke-width:1px;stroke-linecap:butt;stroke-linejoin:miter;stroke-opacity:1;font-family:Arial"
       id="text11562"
       xml:space="preserve"
       sodipodi:linespacing="125%"><tspan
         x="365.08582"
         y="312.65833"
         id="tspan11564">Firmicutes</tspan></text>
    <text
       x="68.401306"
       y="498.24503"
       style="font-size:18px;font-style:normal;font-variant:normal;font-weight:bold;font-stretch:normal;text-align:start;line-height:125%;writing-mode:lr-tb;text-anchor:start;fill:#000000;fill-opacity:1;stroke:none;stroke-width:1px;stroke-linecap:butt;stroke-linejoin:miter;stroke-opacity:1;font-family:Arial"
       id="text11570"
       xml:space="preserve"
       sodipodi:linespacing="125%"><tspan
         x="68.401306"
         y="498.24503"
         id="tspan11572">Euryarchaeota</tspan></text>
    <text
       x="62.681923"
       y="559.25153"
       style="font-size:18px;font-style:normal;font-variant:normal;font-weight:bold;font-stretch:normal;text-align:start;line-height:125%;writing-mode:lr-tb;text-anchor:start;fill:#000000;fill-opacity:1;stroke:none;stroke-width:1px;stroke-linecap:butt;stroke-linejoin:miter;stroke-opacity:1;font-family:Arial"
       id="text11574"
       xml:space="preserve"
       sodipodi:linespacing="125%"><tspan
         x="62.681923"
         y="559.25153"
         id="tspan11576">Crenarchaeota</tspan></text>
    <text
       x="587.90979"
       y="452.49014"
       style="font-size:18px;font-style:normal;font-variant:normal;font-weight:bold;font-stretch:normal;text-align:start;line-height:125%;writing-mode:lr-tb;text-anchor:start;fill:#000000;fill-opacity:1;stroke:none;stroke-width:1px;stroke-linecap:butt;stroke-linejoin:miter;stroke-opacity:1;font-family:Arial"
       id="text11578"
       xml:space="preserve"
       sodipodi:linespacing="125%"><tspan
         x="587.90979"
         y="452.49014"
         id="tspan11580">Actinobacteria</tspan></text>
    <text
       x="121.78196"
       y="447.724"
       style="font-size:18px;font-style:normal;font-variant:normal;font-weight:bold;font-stretch:normal;text-align:start;line-height:125%;writing-mode:lr-tb;text-anchor:start;fill:#000000;fill-opacity:1;stroke:none;stroke-width:1px;stroke-linecap:butt;stroke-linejoin:miter;stroke-opacity:1;font-family:Arial"
       id="text11582"
       xml:space="preserve"
       sodipodi:linespacing="125%"><tspan
         x="121.78196"
         y="447.724"
         id="tspan11584">Protozoa</tspan></text>
    <text
       x="582.19043"
       y="563.06445"
       style="font-size:18px;font-style:normal;font-variant:normal;font-weight:bold;font-stretch:normal;text-align:start;line-height:125%;writing-mode:lr-tb;text-anchor:start;fill:#000000;fill-opacity:1;stroke:none;stroke-width:1px;stroke-linecap:butt;stroke-linejoin:miter;stroke-opacity:1;font-family:Arial"
       id="text11586"
       xml:space="preserve"
       sodipodi:linespacing="125%"><tspan
         x="582.19043"
         y="563.06445"
         id="tspan11588">Cyanobacteria</tspan></text>
    <text
       x="586.95654"
       y="525.88861"
       style="font-size:18px;font-style:normal;font-variant:normal;font-weight:bold;font-stretch:normal;text-align:start;line-height:125%;writing-mode:lr-tb;text-anchor:start;fill:#000000;fill-opacity:1;stroke:none;stroke-width:1px;stroke-linecap:butt;stroke-linejoin:miter;stroke-opacity:1;font-family:Arial"
       id="text11590"
       xml:space="preserve"
       sodipodi:linespacing="125%"><tspan
         x="586.95654"
         y="525.88861"
         id="tspan11592">Fusobacteria</tspan></text>
    <text
       x="568.84521"
       y="392.43689"
       style="font-size:18px;font-style:normal;font-variant:normal;font-weight:bold;font-stretch:normal;text-align:start;line-height:125%;writing-mode:lr-tb;text-anchor:start;fill:#000000;fill-opacity:1;stroke:none;stroke-width:1px;stroke-linecap:butt;stroke-linejoin:miter;stroke-opacity:1;font-family:Arial"
       id="text11594"
       xml:space="preserve"
       sodipodi:linespacing="125%"><tspan
         x="568.84521"
         y="392.43689"
         id="tspan11596">Planctomycetes</tspan></text>
    <text
       x="538.34198"
       y="344.77554"
       style="font-size:18px;font-style:normal;font-variant:normal;font-weight:bold;font-stretch:normal;text-align:start;line-height:125%;writing-mode:lr-tb;text-anchor:start;fill:#000000;fill-opacity:1;stroke:none;stroke-width:1px;stroke-linecap:butt;stroke-linejoin:miter;stroke-opacity:1;font-family:Arial"
       id="text11598"
       xml:space="preserve"
       sodipodi:linespacing="125%"><tspan
         x="538.34198"
         y="344.77554"
         id="tspan11600">Chlamydiae</tspan></text>
    <text
       x="150.3788"
       y="404.82883"
       style="font-size:18px;font-style:normal;font-variant:normal;font-weight:bold;font-stretch:normal;text-align:start;line-height:125%;writing-mode:lr-tb;text-anchor:start;fill:#000000;fill-opacity:1;stroke:none;stroke-width:1px;stroke-linecap:butt;stroke-linejoin:miter;stroke-opacity:1;font-family:Arial"
       id="text11602"
       xml:space="preserve"
       sodipodi:linespacing="125%"><tspan
         x="150.3788"
         y="404.82883"
         id="tspan11604">Plantae</tspan></text>
    <text
       x="194.2272"
       y="355.26105"
       style="font-size:18px;font-style:normal;font-variant:normal;font-weight:bold;font-stretch:normal;text-align:start;line-height:125%;writing-mode:lr-tb;text-anchor:start;fill:#000000;fill-opacity:1;stroke:none;stroke-width:1px;stroke-linecap:butt;stroke-linejoin:miter;stroke-opacity:1;font-family:Arial"
       id="text11606"
       xml:space="preserve"
       sodipodi:linespacing="125%"><tspan
         x="194.2272"
         y="355.26105"
         id="tspan11608">Animalia</tspan></text>
    <text
       x="336.32657"
       y="718.44037"
       style="font-size:18px;font-style:normal;font-variant:normal;font-weight:bold;font-stretch:normal;text-align:start;line-height:125%;writing-mode:lr-tb;text-anchor:start;fill:#000000;fill-opacity:1;stroke:none;stroke-width:1px;stroke-linecap:butt;stroke-linejoin:miter;stroke-opacity:1;font-family:Arial"
       id="text11610"
       xml:space="preserve"
       sodipodi:linespacing="125%"><tspan
         x="336.32657"
         y="718.44037"
         id="tspan11612">Proteobacteria</tspan></text>
    <path
       d="M 312.77934,496.60394 L 389.84327,496.54153"
       style="fill:none;fill-opacity:1;stroke:#000000;stroke-width:2;stroke-linecap:round;stroke-linejoin:round;stroke-miterlimit:4;stroke-dasharray:none;stroke-opacity:1"
       id="path6213" />
  </g>
</svg>
